<?xml version="1.0" encoding="UTF-8" standalone="no"?>
<!DOCTYPE svg PUBLIC "-//W3C//DTD SVG 1.1//EN"
 "http://www.w3.org/Graphics/SVG/1.1/DTD/svg11.dtd">
<!-- Generated by graphviz version 2.40.1 (20161225.0304)
 -->
<!-- Title: dependencies Pages: 1 -->
<svg width="1024pt" height="211pt"
 viewBox="0.00 0.00 1024.00 211.00" xmlns="http://www.w3.org/2000/svg" xmlns:xlink="http://www.w3.org/1999/xlink">
<g id="graph0" class="graph" transform="scale(1 1) rotate(0) translate(4 207)">
<title>dependencies</title>
<polygon fill="#ffffff" stroke="transparent" points="-4,4 -4,-207 1020,-207 1020,4 -4,4"/>
<text text-anchor="start" x="487.0091" y="-42.4" font-family="sans-serif" font-weight="bold" font-size="14.00" fill="#000000">Legend</text>
<polygon fill="#ffffb3" stroke="transparent" points="274,-10 274,-30 294,-30 294,-10 274,-10"/>
<text text-anchor="start" x="297.629" y="-15.4" font-family="sans-serif" font-size="14.00" fill="#000000"> &#160;Declarations</text>
<polygon fill="#8dd3c7" stroke="transparent" points="387,-10 387,-30 407,-30 407,-10 387,-10"/>
<text text-anchor="start" x="410.7251" y="-15.4" font-family="sans-serif" font-size="14.00" fill="#000000"> &#160;Module</text>
<polygon fill="#80b1d3" stroke="transparent" points="473,-10 473,-30 493,-30 493,-10 473,-10"/>
<text text-anchor="start" x="496.7812" y="-15.4" font-family="sans-serif" font-size="14.00" fill="#000000"> &#160;Bootstrap</text>
<polygon fill="#fdb462" stroke="transparent" points="570,-10 570,-30 590,-30 590,-10 570,-10"/>
<text text-anchor="start" x="593.6732" y="-15.4" font-family="sans-serif" font-size="14.00" fill="#000000"> &#160;Providers</text>
<polygon fill="#fb8072" stroke="transparent" points="666,-10 666,-30 686,-30 686,-10 666,-10"/>
<text text-anchor="start" x="689.7258" y="-15.4" font-family="sans-serif" font-size="14.00" fill="#000000"> &#160;Exports</text>
<g id="clust1" class="cluster">
<title>cluster_PersonaModule</title>
<polygon fill="none" stroke="#000000" stroke-dasharray="1,5" points="8,-70 8,-195 1008,-195 1008,-70 8,-70"/>
</g>
<g id="clust2" class="cluster">
<title>cluster_PersonaModule_declarations</title>
<polygon fill="none" stroke="#000000" points="354,-78 354,-130 1000,-130 1000,-78 354,-78"/>
</g>
<g id="clust7" class="cluster">
<title>cluster_PersonaModule_imports</title>
<polygon fill="none" stroke="#000000" points="182,-78 182,-130 346,-130 346,-78 182,-78"/>
</g>
<g id="clust10" class="cluster">
<title>cluster_PersonaModule_providers</title>
<polygon fill="none" stroke="#000000" points="16,-78 16,-130 174,-130 174,-78 16,-78"/>
</g>
<!-- PersonaComponent -->
<g id="node1" class="node">
<title>PersonaComponent</title>
<polygon fill="#ffffb3" stroke="#000000" points="991.6499,-122 866.3501,-122 866.3501,-86 991.6499,-86 991.6499,-122"/>
<text text-anchor="middle" x="929" y="-99.8" font-family="Times,serif" font-size="14.00" fill="#000000">PersonaComponent</text>
</g>
<!-- PersonaModule -->
<g id="node5" class="node">
<title>PersonaModule</title>
<polygon fill="#8dd3c7" stroke="#000000" points="573.8669,-187 570.8669,-191 549.8669,-191 546.8669,-187 470.1331,-187 470.1331,-151 573.8669,-151 573.8669,-187"/>
<text text-anchor="middle" x="522" y="-164.8" font-family="Times,serif" font-size="14.00" fill="#000000">PersonaModule</text>
</g>
<!-- PersonaComponent&#45;&gt;PersonaModule -->
<g id="edge1" class="edge">
<title>PersonaComponent&#45;&gt;PersonaModule</title>
<path fill="none" stroke="#000000" d="M929,-122.2843C929,-143.3211 929,-175 929,-175 929,-175 583.9602,-175 583.9602,-175"/>
<polygon fill="#000000" stroke="#000000" points="583.9603,-171.5001 573.9602,-175 583.9602,-178.5001 583.9603,-171.5001"/>
</g>
<!-- PersonaItemComponent -->
<g id="node2" class="node">
<title>PersonaItemComponent</title>
<polygon fill="#ffffb3" stroke="#000000" points="848.8061,-122 697.1939,-122 697.1939,-86 848.8061,-86 848.8061,-122"/>
<text text-anchor="middle" x="773" y="-99.8" font-family="Times,serif" font-size="14.00" fill="#000000">PersonaItemComponent</text>
</g>
<!-- PersonaItemComponent&#45;&gt;PersonaModule -->
<g id="edge2" class="edge">
<title>PersonaItemComponent&#45;&gt;PersonaModule</title>
<path fill="none" stroke="#000000" d="M773,-122.0225C773,-139.3734 773,-163 773,-163 773,-163 584.0074,-163 584.0074,-163"/>
<polygon fill="#000000" stroke="#000000" points="584.0074,-159.5001 574.0074,-163 584.0073,-166.5001 584.0074,-159.5001"/>
</g>
<!-- PersonaListComponent -->
<g id="node3" class="node">
<title>PersonaListComponent</title>
<polygon fill="#ffffb3" stroke="#000000" points="679.9284,-122 532.0716,-122 532.0716,-86 679.9284,-86 679.9284,-122"/>
<text text-anchor="middle" x="606" y="-99.8" font-family="Times,serif" font-size="14.00" fill="#000000">PersonaListComponent</text>
</g>
<!-- PersonaListComponent&#45;&gt;PersonaModule -->
<g id="edge3" class="edge">
<title>PersonaListComponent&#45;&gt;PersonaModule</title>
<path fill="none" stroke="#000000" d="M553.1098,-122.1061C553.1098,-122.1061 553.1098,-140.991 553.1098,-140.991"/>
<polygon fill="#000000" stroke="#000000" points="549.6098,-140.9909 553.1098,-150.991 556.6098,-140.991 549.6098,-140.9909"/>
</g>
<!-- PersonaPrintComponent -->
<g id="node4" class="node">
<title>PersonaPrintComponent</title>
<polygon fill="#ffffb3" stroke="#000000" points="514.3739,-122 361.6261,-122 361.6261,-86 514.3739,-86 514.3739,-122"/>
<text text-anchor="middle" x="438" y="-99.8" font-family="Times,serif" font-size="14.00" fill="#000000">PersonaPrintComponent</text>
</g>
<!-- PersonaPrintComponent&#45;&gt;PersonaModule -->
<g id="edge4" class="edge">
<title>PersonaPrintComponent&#45;&gt;PersonaModule</title>
<path fill="none" stroke="#000000" d="M492.2518,-122.1061C492.2518,-122.1061 492.2518,-140.991 492.2518,-140.991"/>
<polygon fill="#000000" stroke="#000000" points="488.7518,-140.9909 492.2518,-150.991 495.7518,-140.991 488.7518,-140.9909"/>
</g>
<!-- PersonaRoutingModule -->
<g id="node6" class="node">
<title>PersonaRoutingModule</title>
<polygon fill="#8dd3c7" stroke="#000000" points="338.4846,-122 335.4846,-126 314.4846,-126 311.4846,-122 189.5154,-122 189.5154,-86 338.4846,-86 338.4846,-122"/>
<text text-anchor="middle" x="264" y="-99.8" font-family="Times,serif" font-size="14.00" fill="#000000">PersonaRoutingModule</text>
</g>
<!-- PersonaRoutingModule&#45;&gt;PersonaModule -->
<g id="edge5" class="edge">
<title>PersonaRoutingModule&#45;&gt;PersonaModule</title>
<path fill="none" stroke="#000000" d="M264,-122.0225C264,-139.3734 264,-163 264,-163 264,-163 460.1002,-163 460.1002,-163"/>
<polygon fill="#000000" stroke="#000000" points="460.1002,-166.5001 470.1002,-163 460.1002,-159.5001 460.1002,-166.5001"/>
</g>
<!-- PersonaService -->
<g id="node7" class="node">
<title>PersonaService</title>
<ellipse fill="#fdb462" stroke="#000000" cx="95" cy="-104" rx="70.622" ry="18"/>
<text text-anchor="middle" x="95" y="-99.8" font-family="Times,serif" font-size="14.00" fill="#000000">PersonaService</text>
</g>
<!-- PersonaService&#45;&gt;PersonaModule -->
<g id="edge6" class="edge">
<title>PersonaService&#45;&gt;PersonaModule</title>
<path fill="none" stroke="#000000" d="M95,-122.2843C95,-143.3211 95,-175 95,-175 95,-175 460.0683,-175 460.0683,-175"/>
<polygon fill="#000000" stroke="#000000" points="460.0683,-178.5001 470.0683,-175 460.0683,-171.5001 460.0683,-178.5001"/>
</g>
</g>
</svg>
