<?xml version="1.0" encoding="UTF-8" standalone="no"?>
<!DOCTYPE svg PUBLIC "-//W3C//DTD SVG 1.1//EN"
 "http://www.w3.org/Graphics/SVG/1.1/DTD/svg11.dtd">
<!-- Generated by graphviz version 2.40.1 (20161225.0304)
 -->
<!-- Title: dependencies Pages: 1 -->
<svg width="787pt" height="211pt"
 viewBox="0.00 0.00 787.00 211.00" xmlns="http://www.w3.org/2000/svg" xmlns:xlink="http://www.w3.org/1999/xlink">
<g id="graph0" class="graph" transform="scale(1 1) rotate(0) translate(4 207)">
<title>dependencies</title>
<polygon fill="#ffffff" stroke="transparent" points="-4,4 -4,-207 783,-207 783,4 -4,4"/>
<text text-anchor="start" x="368.5091" y="-42.4" font-family="sans-serif" font-weight="bold" font-size="14.00" fill="#000000">Legend</text>
<polygon fill="#ffffb3" stroke="transparent" points="155.5,-10 155.5,-30 175.5,-30 175.5,-10 155.5,-10"/>
<text text-anchor="start" x="179.129" y="-15.4" font-family="sans-serif" font-size="14.00" fill="#000000"> &#160;Declarations</text>
<polygon fill="#8dd3c7" stroke="transparent" points="268.5,-10 268.5,-30 288.5,-30 288.5,-10 268.5,-10"/>
<text text-anchor="start" x="292.2251" y="-15.4" font-family="sans-serif" font-size="14.00" fill="#000000"> &#160;Module</text>
<polygon fill="#80b1d3" stroke="transparent" points="354.5,-10 354.5,-30 374.5,-30 374.5,-10 354.5,-10"/>
<text text-anchor="start" x="378.2812" y="-15.4" font-family="sans-serif" font-size="14.00" fill="#000000"> &#160;Bootstrap</text>
<polygon fill="#fdb462" stroke="transparent" points="451.5,-10 451.5,-30 471.5,-30 471.5,-10 451.5,-10"/>
<text text-anchor="start" x="475.1732" y="-15.4" font-family="sans-serif" font-size="14.00" fill="#000000"> &#160;Providers</text>
<polygon fill="#fb8072" stroke="transparent" points="547.5,-10 547.5,-30 567.5,-30 567.5,-10 547.5,-10"/>
<text text-anchor="start" x="571.2258" y="-15.4" font-family="sans-serif" font-size="14.00" fill="#000000"> &#160;Exports</text>
<g id="clust1" class="cluster">
<title>cluster_TareaModule</title>
<polygon fill="none" stroke="#000000" stroke-dasharray="1,5" points="8,-70 8,-195 771,-195 771,-70 8,-70"/>
</g>
<g id="clust2" class="cluster">
<title>cluster_TareaModule_declarations</title>
<polygon fill="none" stroke="#000000" points="324,-78 324,-130 763,-130 763,-78 324,-78"/>
</g>
<g id="clust6" class="cluster">
<title>cluster_TareaModule_imports</title>
<polygon fill="none" stroke="#000000" points="164,-78 164,-130 316,-130 316,-78 164,-78"/>
</g>
<g id="clust9" class="cluster">
<title>cluster_TareaModule_providers</title>
<polygon fill="none" stroke="#000000" points="16,-78 16,-130 156,-130 156,-78 16,-78"/>
</g>
<!-- TareaComponent -->
<g id="node1" class="node">
<title>TareaComponent</title>
<polygon fill="#ffffb3" stroke="#000000" points="754.6896,-122 641.3104,-122 641.3104,-86 754.6896,-86 754.6896,-122"/>
<text text-anchor="middle" x="698" y="-99.8" font-family="Times,serif" font-size="14.00" fill="#000000">TareaComponent</text>
</g>
<!-- TareaModule -->
<g id="node4" class="node">
<title>TareaModule</title>
<polygon fill="#8dd3c7" stroke="#000000" points="444.9077,-187 441.9077,-191 420.9077,-191 417.9077,-187 353.0923,-187 353.0923,-151 444.9077,-151 444.9077,-187"/>
<text text-anchor="middle" x="399" y="-164.8" font-family="Times,serif" font-size="14.00" fill="#000000">TareaModule</text>
</g>
<!-- TareaComponent&#45;&gt;TareaModule -->
<g id="edge1" class="edge">
<title>TareaComponent&#45;&gt;TareaModule</title>
<path fill="none" stroke="#000000" d="M698,-122.2843C698,-143.3211 698,-175 698,-175 698,-175 454.7371,-175 454.7371,-175"/>
<polygon fill="#000000" stroke="#000000" points="454.7372,-171.5001 444.7371,-175 454.7371,-178.5001 454.7372,-171.5001"/>
</g>
<!-- TareaItemComponent -->
<g id="node2" class="node">
<title>TareaItemComponent</title>
<polygon fill="#ffffb3" stroke="#000000" points="623.3459,-122 484.6541,-122 484.6541,-86 623.3459,-86 623.3459,-122"/>
<text text-anchor="middle" x="554" y="-99.8" font-family="Times,serif" font-size="14.00" fill="#000000">TareaItemComponent</text>
</g>
<!-- TareaItemComponent&#45;&gt;TareaModule -->
<g id="edge2" class="edge">
<title>TareaItemComponent&#45;&gt;TareaModule</title>
<path fill="none" stroke="#000000" d="M554,-122.0225C554,-139.3734 554,-163 554,-163 554,-163 455.0854,-163 455.0854,-163"/>
<polygon fill="#000000" stroke="#000000" points="455.0855,-159.5001 445.0854,-163 455.0854,-166.5001 455.0855,-159.5001"/>
</g>
<!-- TareaListComponent -->
<g id="node3" class="node">
<title>TareaListComponent</title>
<polygon fill="#ffffb3" stroke="#000000" points="466.4678,-122 331.5322,-122 331.5322,-86 466.4678,-86 466.4678,-122"/>
<text text-anchor="middle" x="399" y="-99.8" font-family="Times,serif" font-size="14.00" fill="#000000">TareaListComponent</text>
</g>
<!-- TareaListComponent&#45;&gt;TareaModule -->
<g id="edge3" class="edge">
<title>TareaListComponent&#45;&gt;TareaModule</title>
<path fill="none" stroke="#000000" d="M399,-122.1061C399,-122.1061 399,-140.991 399,-140.991"/>
<polygon fill="#000000" stroke="#000000" points="395.5001,-140.9909 399,-150.991 402.5001,-140.991 395.5001,-140.9909"/>
</g>
<!-- TareaRoutingModule -->
<g id="node5" class="node">
<title>TareaRoutingModule</title>
<polygon fill="#8dd3c7" stroke="#000000" points="308.0254,-122 305.0254,-126 284.0254,-126 281.0254,-122 171.9746,-122 171.9746,-86 308.0254,-86 308.0254,-122"/>
<text text-anchor="middle" x="240" y="-99.8" font-family="Times,serif" font-size="14.00" fill="#000000">TareaRoutingModule</text>
</g>
<!-- TareaRoutingModule&#45;&gt;TareaModule -->
<g id="edge4" class="edge">
<title>TareaRoutingModule&#45;&gt;TareaModule</title>
<path fill="none" stroke="#000000" d="M240,-122.0225C240,-139.3734 240,-163 240,-163 240,-163 343.0106,-163 343.0106,-163"/>
<polygon fill="#000000" stroke="#000000" points="343.0106,-166.5001 353.0106,-163 343.0106,-159.5001 343.0106,-166.5001"/>
</g>
<!-- TareaService -->
<g id="node6" class="node">
<title>TareaService</title>
<ellipse fill="#fdb462" stroke="#000000" cx="86" cy="-104" rx="61.9326" ry="18"/>
<text text-anchor="middle" x="86" y="-99.8" font-family="Times,serif" font-size="14.00" fill="#000000">TareaService</text>
</g>
<!-- TareaService&#45;&gt;TareaModule -->
<g id="edge5" class="edge">
<title>TareaService&#45;&gt;TareaModule</title>
<path fill="none" stroke="#000000" d="M86,-122.2843C86,-143.3211 86,-175 86,-175 86,-175 343.1519,-175 343.1519,-175"/>
<polygon fill="#000000" stroke="#000000" points="343.1519,-178.5001 353.1519,-175 343.1519,-171.5001 343.1519,-178.5001"/>
</g>
</g>
</svg>
