<?xml version="1.0" encoding="UTF-8" standalone="no"?>
<!DOCTYPE svg PUBLIC "-//W3C//DTD SVG 1.1//EN"
 "http://www.w3.org/Graphics/SVG/1.1/DTD/svg11.dtd">
<!-- Generated by graphviz version 2.40.1 (20161225.0304)
 -->
<!-- Title: dependencies Pages: 1 -->
<svg width="920pt" height="284pt"
 viewBox="0.00 0.00 920.00 284.00" xmlns="http://www.w3.org/2000/svg" xmlns:xlink="http://www.w3.org/1999/xlink">
<g id="graph0" class="graph" transform="scale(1 1) rotate(0) translate(4 280)">
<title>dependencies</title>
<polygon fill="#ffffff" stroke="transparent" points="-4,4 -4,-280 916,-280 916,4 -4,4"/>
<text text-anchor="start" x="435.0091" y="-42.4" font-family="sans-serif" font-weight="bold" font-size="14.00" fill="#000000">Legend</text>
<polygon fill="#ffffb3" stroke="transparent" points="222,-10 222,-30 242,-30 242,-10 222,-10"/>
<text text-anchor="start" x="245.629" y="-15.4" font-family="sans-serif" font-size="14.00" fill="#000000"> &#160;Declarations</text>
<polygon fill="#8dd3c7" stroke="transparent" points="335,-10 335,-30 355,-30 355,-10 335,-10"/>
<text text-anchor="start" x="358.7251" y="-15.4" font-family="sans-serif" font-size="14.00" fill="#000000"> &#160;Module</text>
<polygon fill="#80b1d3" stroke="transparent" points="421,-10 421,-30 441,-30 441,-10 421,-10"/>
<text text-anchor="start" x="444.7812" y="-15.4" font-family="sans-serif" font-size="14.00" fill="#000000"> &#160;Bootstrap</text>
<polygon fill="#fdb462" stroke="transparent" points="518,-10 518,-30 538,-30 538,-10 518,-10"/>
<text text-anchor="start" x="541.6732" y="-15.4" font-family="sans-serif" font-size="14.00" fill="#000000"> &#160;Providers</text>
<polygon fill="#fb8072" stroke="transparent" points="614,-10 614,-30 634,-30 634,-10 614,-10"/>
<text text-anchor="start" x="637.7258" y="-15.4" font-family="sans-serif" font-size="14.00" fill="#000000"> &#160;Exports</text>
<g id="clust1" class="cluster">
<title>cluster_AppModule</title>
<polygon fill="none" stroke="#000000" stroke-dasharray="1,5" points="8,-70 8,-268 904,-268 904,-70 8,-70"/>
</g>
<g id="clust2" class="cluster">
<title>cluster_AppModule_declarations</title>
<polygon fill="none" stroke="#000000" points="468,-78 468,-130 896,-130 896,-78 468,-78"/>
</g>
<g id="clust6" class="cluster">
<title>cluster_AppModule_imports</title>
<polygon fill="none" stroke="#000000" points="316,-78 316,-130 460,-130 460,-78 316,-78"/>
</g>
<g id="clust8" class="cluster">
<title>cluster_AppModule_bootstrap</title>
<polygon fill="none" stroke="#000000" points="400,-208 400,-260 524,-260 524,-208 400,-208"/>
</g>
<g id="clust9" class="cluster">
<title>cluster_AppModule_providers</title>
<polygon fill="none" stroke="#000000" points="16,-78 16,-130 308,-130 308,-78 16,-78"/>
</g>
<!-- AppComponent -->
<g id="node1" class="node">
<title>AppComponent</title>
<polygon fill="#ffffb3" stroke="#000000" points="887.9399,-122 782.0601,-122 782.0601,-86 887.9399,-86 887.9399,-122"/>
<text text-anchor="middle" x="835" y="-99.8" font-family="Times,serif" font-size="14.00" fill="#000000">AppComponent</text>
</g>
<!-- AppModule -->
<g id="node4" class="node">
<title>AppModule</title>
<polygon fill="#8dd3c7" stroke="#000000" points="503.6571,-187 500.6571,-191 479.6571,-191 476.6571,-187 420.3429,-187 420.3429,-151 503.6571,-151 503.6571,-187"/>
<text text-anchor="middle" x="462" y="-164.8" font-family="Times,serif" font-size="14.00" fill="#000000">AppModule</text>
</g>
<!-- AppComponent&#45;&gt;AppModule -->
<g id="edge1" class="edge">
<title>AppComponent&#45;&gt;AppModule</title>
<path fill="none" stroke="#000000" d="M835,-122.2843C835,-143.3211 835,-175 835,-175 835,-175 513.7021,-175 513.7021,-175"/>
<polygon fill="#000000" stroke="#000000" points="513.7021,-171.5001 503.7021,-175 513.7021,-178.5001 513.7021,-171.5001"/>
</g>
<!-- HelloWorldComponent -->
<g id="node2" class="node">
<title>HelloWorldComponent</title>
<polygon fill="#ffffb3" stroke="#000000" points="764.2007,-122 615.7993,-122 615.7993,-86 764.2007,-86 764.2007,-122"/>
<text text-anchor="middle" x="690" y="-99.8" font-family="Times,serif" font-size="14.00" fill="#000000">HelloWorldComponent</text>
</g>
<!-- HelloWorldComponent&#45;&gt;AppModule -->
<g id="edge2" class="edge">
<title>HelloWorldComponent&#45;&gt;AppModule</title>
<path fill="none" stroke="#000000" d="M690,-122.0225C690,-139.3734 690,-163 690,-163 690,-163 513.8187,-163 513.8187,-163"/>
<polygon fill="#000000" stroke="#000000" points="513.8187,-159.5001 503.8187,-163 513.8187,-166.5001 513.8187,-159.5001"/>
</g>
<!-- NavbarComponent -->
<g id="node3" class="node">
<title>NavbarComponent</title>
<polygon fill="#ffffb3" stroke="#000000" points="598.0297,-122 475.9703,-122 475.9703,-86 598.0297,-86 598.0297,-122"/>
<text text-anchor="middle" x="537" y="-99.8" font-family="Times,serif" font-size="14.00" fill="#000000">NavbarComponent</text>
</g>
<!-- NavbarComponent&#45;&gt;AppModule -->
<g id="edge3" class="edge">
<title>NavbarComponent&#45;&gt;AppModule</title>
<path fill="none" stroke="#000000" d="M489.7819,-122.1061C489.7819,-122.1061 489.7819,-140.991 489.7819,-140.991"/>
<polygon fill="#000000" stroke="#000000" points="486.282,-140.9909 489.7819,-150.991 493.282,-140.991 486.282,-140.9909"/>
</g>
<!-- AppComponent  -->
<g id="node6" class="node">
<title>AppComponent </title>
<polygon fill="#80b1d3" stroke="#000000" points="516.439,-252 407.561,-252 407.561,-216 516.439,-216 516.439,-252"/>
<text text-anchor="middle" x="462" y="-229.8" font-family="Times,serif" font-size="14.00" fill="#000000">AppComponent </text>
</g>
<!-- AppModule&#45;&gt;AppComponent  -->
<g id="edge5" class="edge">
<title>AppModule&#45;&gt;AppComponent </title>
<path fill="none" stroke="#000000" stroke-dasharray="1,5" d="M462,-187.1061C462,-187.1061 462,-205.991 462,-205.991"/>
<polygon fill="#000000" stroke="#000000" points="458.5001,-205.9909 462,-215.991 465.5001,-205.991 458.5001,-205.9909"/>
</g>
<!-- AppRoutingModule -->
<g id="node5" class="node">
<title>AppRoutingModule</title>
<polygon fill="#8dd3c7" stroke="#000000" points="452.2744,-122 449.2744,-126 428.2744,-126 425.2744,-122 323.7256,-122 323.7256,-86 452.2744,-86 452.2744,-122"/>
<text text-anchor="middle" x="388" y="-99.8" font-family="Times,serif" font-size="14.00" fill="#000000">AppRoutingModule</text>
</g>
<!-- AppRoutingModule&#45;&gt;AppModule -->
<g id="edge4" class="edge">
<title>AppRoutingModule&#45;&gt;AppModule</title>
<path fill="none" stroke="#000000" d="M436.2795,-122.1061C436.2795,-122.1061 436.2795,-140.991 436.2795,-140.991"/>
<polygon fill="#000000" stroke="#000000" points="432.7795,-140.9909 436.2795,-150.991 439.7795,-140.991 432.7795,-140.9909"/>
</g>
<!-- JwtInterceptor -->
<g id="node7" class="node">
<title>JwtInterceptor</title>
<ellipse fill="#fdb462" stroke="#000000" cx="233" cy="-104" rx="66.6094" ry="18"/>
<text text-anchor="middle" x="233" y="-99.8" font-family="Times,serif" font-size="14.00" fill="#000000">JwtInterceptor</text>
</g>
<!-- JwtInterceptor&#45;&gt;AppModule -->
<g id="edge6" class="edge">
<title>JwtInterceptor&#45;&gt;AppModule</title>
<path fill="none" stroke="#000000" d="M233,-122.0225C233,-139.3734 233,-163 233,-163 233,-163 410.2641,-163 410.2641,-163"/>
<polygon fill="#000000" stroke="#000000" points="410.2642,-166.5001 420.2641,-163 410.2641,-159.5001 410.2642,-166.5001"/>
</g>
<!-- TareaService -->
<g id="node8" class="node">
<title>TareaService</title>
<ellipse fill="#fdb462" stroke="#000000" cx="86" cy="-104" rx="61.9326" ry="18"/>
<text text-anchor="middle" x="86" y="-99.8" font-family="Times,serif" font-size="14.00" fill="#000000">TareaService</text>
</g>
<!-- TareaService&#45;&gt;AppModule -->
<g id="edge7" class="edge">
<title>TareaService&#45;&gt;AppModule</title>
<path fill="none" stroke="#000000" d="M86,-122.2843C86,-143.3211 86,-175 86,-175 86,-175 410.3248,-175 410.3248,-175"/>
<polygon fill="#000000" stroke="#000000" points="410.3248,-178.5001 420.3248,-175 410.3248,-171.5001 410.3248,-178.5001"/>
</g>
</g>
</svg>
