<?xml version="1.0" encoding="UTF-8" standalone="no"?>
<!DOCTYPE svg PUBLIC "-//W3C//DTD SVG 1.1//EN"
 "http://www.w3.org/Graphics/SVG/1.1/DTD/svg11.dtd">
<!-- Generated by graphviz version 2.40.1 (20161225.0304)
 -->
<!-- Title: dependencies Pages: 1 -->
<svg width="3025pt" height="284pt"
 viewBox="0.00 0.00 3025.00 284.00" xmlns="http://www.w3.org/2000/svg" xmlns:xlink="http://www.w3.org/1999/xlink">
<g id="graph0" class="graph" transform="scale(1 1) rotate(0) translate(4 280)">
<title>dependencies</title>
<polygon fill="#ffffff" stroke="transparent" points="-4,4 -4,-280 3021,-280 3021,4 -4,4"/>
<text text-anchor="start" x="1487.5091" y="-42.4" font-family="sans-serif" font-weight="bold" font-size="14.00" fill="#000000">Legend</text>
<polygon fill="#ffffb3" stroke="transparent" points="1274.5,-10 1274.5,-30 1294.5,-30 1294.5,-10 1274.5,-10"/>
<text text-anchor="start" x="1298.129" y="-15.4" font-family="sans-serif" font-size="14.00" fill="#000000"> &#160;Declarations</text>
<polygon fill="#8dd3c7" stroke="transparent" points="1387.5,-10 1387.5,-30 1407.5,-30 1407.5,-10 1387.5,-10"/>
<text text-anchor="start" x="1411.2251" y="-15.4" font-family="sans-serif" font-size="14.00" fill="#000000"> &#160;Module</text>
<polygon fill="#80b1d3" stroke="transparent" points="1473.5,-10 1473.5,-30 1493.5,-30 1493.5,-10 1473.5,-10"/>
<text text-anchor="start" x="1497.2812" y="-15.4" font-family="sans-serif" font-size="14.00" fill="#000000"> &#160;Bootstrap</text>
<polygon fill="#fdb462" stroke="transparent" points="1570.5,-10 1570.5,-30 1590.5,-30 1590.5,-10 1570.5,-10"/>
<text text-anchor="start" x="1594.1732" y="-15.4" font-family="sans-serif" font-size="14.00" fill="#000000"> &#160;Providers</text>
<polygon fill="#fb8072" stroke="transparent" points="1666.5,-10 1666.5,-30 1686.5,-30 1686.5,-10 1666.5,-10"/>
<text text-anchor="start" x="1690.2258" y="-15.4" font-family="sans-serif" font-size="14.00" fill="#000000"> &#160;Exports</text>
<g id="clust1" class="cluster">
<title>cluster_AboutModule</title>
<polygon fill="none" stroke="#000000" stroke-dasharray="1,5" points="8,-70 8,-195 320,-195 320,-70 8,-70"/>
</g>
<g id="clust2" class="cluster">
<title>cluster_AboutModule_declarations</title>
<polygon fill="none" stroke="#000000" points="180,-78 180,-130 312,-130 312,-78 180,-78"/>
</g>
<g id="clust4" class="cluster">
<title>cluster_AboutModule_imports</title>
<polygon fill="none" stroke="#000000" points="16,-78 16,-130 172,-130 172,-78 16,-78"/>
</g>
<g id="clust14" class="cluster">
<title>cluster_AppModule</title>
<polygon fill="none" stroke="#000000" stroke-dasharray="1,5" points="328,-70 328,-268 1224,-268 1224,-70 328,-70"/>
</g>
<g id="clust15" class="cluster">
<title>cluster_AppModule_declarations</title>
<polygon fill="none" stroke="#000000" points="488,-78 488,-130 916,-130 916,-78 488,-78"/>
</g>
<g id="clust19" class="cluster">
<title>cluster_AppModule_imports</title>
<polygon fill="none" stroke="#000000" points="336,-78 336,-130 480,-130 480,-78 336,-78"/>
</g>
<g id="clust21" class="cluster">
<title>cluster_AppModule_bootstrap</title>
<polygon fill="none" stroke="#000000" points="720,-208 720,-260 844,-260 844,-208 720,-208"/>
</g>
<g id="clust22" class="cluster">
<title>cluster_AppModule_providers</title>
<polygon fill="none" stroke="#000000" points="924,-78 924,-130 1216,-130 1216,-78 924,-78"/>
</g>
<g id="clust29" class="cluster">
<title>cluster_PersonaModule</title>
<polygon fill="none" stroke="#000000" stroke-dasharray="1,5" points="1855,-70 1855,-195 2855,-195 2855,-70 1855,-70"/>
</g>
<g id="clust30" class="cluster">
<title>cluster_PersonaModule_declarations</title>
<polygon fill="none" stroke="#000000" points="2201,-78 2201,-130 2847,-130 2847,-78 2201,-78"/>
</g>
<g id="clust35" class="cluster">
<title>cluster_PersonaModule_imports</title>
<polygon fill="none" stroke="#000000" points="2029,-78 2029,-130 2193,-130 2193,-78 2029,-78"/>
</g>
<g id="clust38" class="cluster">
<title>cluster_PersonaModule_providers</title>
<polygon fill="none" stroke="#000000" points="1863,-78 1863,-130 2021,-130 2021,-78 1863,-78"/>
</g>
<g id="clust45" class="cluster">
<title>cluster_SharedPipesModule</title>
<polygon fill="none" stroke="#000000" stroke-dasharray="1,5" points="2863,-70 2863,-268 3009,-268 3009,-70 2863,-70"/>
</g>
<g id="clust46" class="cluster">
<title>cluster_SharedPipesModule_declarations</title>
<polygon fill="none" stroke="#000000" points="2873,-78 2873,-130 2999,-130 2999,-78 2873,-78"/>
</g>
<g id="clust49" class="cluster">
<title>cluster_SharedPipesModule_exports</title>
<polygon fill="none" stroke="#000000" points="2871,-208 2871,-260 3001,-260 3001,-208 2871,-208"/>
</g>
<g id="clust52" class="cluster">
<title>cluster_TareaModule</title>
<polygon fill="none" stroke="#000000" stroke-dasharray="1,5" points="1232,-70 1232,-195 1847,-195 1847,-70 1232,-70"/>
</g>
<g id="clust53" class="cluster">
<title>cluster_TareaModule_declarations</title>
<polygon fill="none" stroke="#000000" points="1400,-78 1400,-130 1839,-130 1839,-78 1400,-78"/>
</g>
<g id="clust57" class="cluster">
<title>cluster_TareaModule_imports</title>
<polygon fill="none" stroke="#000000" points="1240,-78 1240,-130 1392,-130 1392,-78 1240,-78"/>
</g>
<!-- AboutComponent -->
<g id="node1" class="node">
<title>AboutComponent</title>
<polygon fill="#ffffb3" stroke="#000000" points="304.3301,-122 187.6699,-122 187.6699,-86 304.3301,-86 304.3301,-122"/>
<text text-anchor="middle" x="246" y="-99.8" font-family="Times,serif" font-size="14.00" fill="#000000">AboutComponent</text>
</g>
<!-- AboutModule -->
<g id="node2" class="node">
<title>AboutModule</title>
<polygon fill="#8dd3c7" stroke="#000000" points="217.0481,-187 214.0481,-191 193.0481,-191 190.0481,-187 122.9519,-187 122.9519,-151 217.0481,-151 217.0481,-187"/>
<text text-anchor="middle" x="170" y="-164.8" font-family="Times,serif" font-size="14.00" fill="#000000">AboutModule</text>
</g>
<!-- AboutComponent&#45;&gt;AboutModule -->
<g id="edge1" class="edge">
<title>AboutComponent&#45;&gt;AboutModule</title>
<path fill="none" stroke="#000000" d="M202.5544,-122.1061C202.5544,-122.1061 202.5544,-140.991 202.5544,-140.991"/>
<polygon fill="#000000" stroke="#000000" points="199.0544,-140.9909 202.5544,-150.991 206.0544,-140.991 199.0544,-140.9909"/>
</g>
<!-- AboutRoutingModule -->
<g id="node3" class="node">
<title>AboutRoutingModule</title>
<polygon fill="#8dd3c7" stroke="#000000" points="163.6652,-122 160.6652,-126 139.6652,-126 136.6652,-122 24.3348,-122 24.3348,-86 163.6652,-86 163.6652,-122"/>
<text text-anchor="middle" x="94" y="-99.8" font-family="Times,serif" font-size="14.00" fill="#000000">AboutRoutingModule</text>
</g>
<!-- AboutRoutingModule&#45;&gt;AboutModule -->
<g id="edge2" class="edge">
<title>AboutRoutingModule&#45;&gt;AboutModule</title>
<path fill="none" stroke="#000000" d="M143.2795,-122.1061C143.2795,-122.1061 143.2795,-140.991 143.2795,-140.991"/>
<polygon fill="#000000" stroke="#000000" points="139.7795,-140.9909 143.2795,-150.991 146.7795,-140.991 139.7795,-140.9909"/>
</g>
<!-- AppComponent -->
<g id="node4" class="node">
<title>AppComponent</title>
<polygon fill="#ffffb3" stroke="#000000" points="907.9399,-122 802.0601,-122 802.0601,-86 907.9399,-86 907.9399,-122"/>
<text text-anchor="middle" x="855" y="-99.8" font-family="Times,serif" font-size="14.00" fill="#000000">AppComponent</text>
</g>
<!-- AppModule -->
<g id="node7" class="node">
<title>AppModule</title>
<polygon fill="#8dd3c7" stroke="#000000" points="823.6571,-187 820.6571,-191 799.6571,-191 796.6571,-187 740.3429,-187 740.3429,-151 823.6571,-151 823.6571,-187"/>
<text text-anchor="middle" x="782" y="-164.8" font-family="Times,serif" font-size="14.00" fill="#000000">AppModule</text>
</g>
<!-- AppComponent&#45;&gt;AppModule -->
<g id="edge3" class="edge">
<title>AppComponent&#45;&gt;AppModule</title>
<path fill="none" stroke="#000000" d="M813.0544,-122.1061C813.0544,-122.1061 813.0544,-140.991 813.0544,-140.991"/>
<polygon fill="#000000" stroke="#000000" points="809.5544,-140.9909 813.0544,-150.991 816.5544,-140.991 809.5544,-140.9909"/>
</g>
<!-- HelloWorldComponent -->
<g id="node5" class="node">
<title>HelloWorldComponent</title>
<polygon fill="#ffffb3" stroke="#000000" points="784.2007,-122 635.7993,-122 635.7993,-86 784.2007,-86 784.2007,-122"/>
<text text-anchor="middle" x="710" y="-99.8" font-family="Times,serif" font-size="14.00" fill="#000000">HelloWorldComponent</text>
</g>
<!-- HelloWorldComponent&#45;&gt;AppModule -->
<g id="edge4" class="edge">
<title>HelloWorldComponent&#45;&gt;AppModule</title>
<path fill="none" stroke="#000000" d="M762.1361,-122.1061C762.1361,-122.1061 762.1361,-140.991 762.1361,-140.991"/>
<polygon fill="#000000" stroke="#000000" points="758.6361,-140.9909 762.1361,-150.991 765.6361,-140.991 758.6361,-140.9909"/>
</g>
<!-- NavbarComponent -->
<g id="node6" class="node">
<title>NavbarComponent</title>
<polygon fill="#ffffb3" stroke="#000000" points="618.0297,-122 495.9703,-122 495.9703,-86 618.0297,-86 618.0297,-122"/>
<text text-anchor="middle" x="557" y="-99.8" font-family="Times,serif" font-size="14.00" fill="#000000">NavbarComponent</text>
</g>
<!-- NavbarComponent&#45;&gt;AppModule -->
<g id="edge5" class="edge">
<title>NavbarComponent&#45;&gt;AppModule</title>
<path fill="none" stroke="#000000" d="M557,-122.0225C557,-139.3734 557,-163 557,-163 557,-163 730.2065,-163 730.2065,-163"/>
<polygon fill="#000000" stroke="#000000" points="730.2066,-166.5001 740.2065,-163 730.2065,-159.5001 730.2066,-166.5001"/>
</g>
<!-- AppComponent  -->
<g id="node9" class="node">
<title>AppComponent </title>
<polygon fill="#80b1d3" stroke="#000000" points="836.439,-252 727.561,-252 727.561,-216 836.439,-216 836.439,-252"/>
<text text-anchor="middle" x="782" y="-229.8" font-family="Times,serif" font-size="14.00" fill="#000000">AppComponent </text>
</g>
<!-- AppModule&#45;&gt;AppComponent  -->
<g id="edge7" class="edge">
<title>AppModule&#45;&gt;AppComponent </title>
<path fill="none" stroke="#000000" stroke-dasharray="1,5" d="M782,-187.1061C782,-187.1061 782,-205.991 782,-205.991"/>
<polygon fill="#000000" stroke="#000000" points="778.5001,-205.9909 782,-215.991 785.5001,-205.991 778.5001,-205.9909"/>
</g>
<!-- AppRoutingModule -->
<g id="node8" class="node">
<title>AppRoutingModule</title>
<polygon fill="#8dd3c7" stroke="#000000" points="472.2744,-122 469.2744,-126 448.2744,-126 445.2744,-122 343.7256,-122 343.7256,-86 472.2744,-86 472.2744,-122"/>
<text text-anchor="middle" x="408" y="-99.8" font-family="Times,serif" font-size="14.00" fill="#000000">AppRoutingModule</text>
</g>
<!-- AppRoutingModule&#45;&gt;AppModule -->
<g id="edge6" class="edge">
<title>AppRoutingModule&#45;&gt;AppModule</title>
<path fill="none" stroke="#000000" d="M408,-122.2843C408,-143.3211 408,-175 408,-175 408,-175 730.1861,-175 730.1861,-175"/>
<polygon fill="#000000" stroke="#000000" points="730.1861,-178.5001 740.1861,-175 730.1861,-171.5001 730.1861,-178.5001"/>
</g>
<!-- JwtInterceptor -->
<g id="node10" class="node">
<title>JwtInterceptor</title>
<ellipse fill="#fdb462" stroke="#000000" cx="999" cy="-104" rx="66.6094" ry="18"/>
<text text-anchor="middle" x="999" y="-99.8" font-family="Times,serif" font-size="14.00" fill="#000000">JwtInterceptor</text>
</g>
<!-- JwtInterceptor&#45;&gt;AppModule -->
<g id="edge8" class="edge">
<title>JwtInterceptor&#45;&gt;AppModule</title>
<path fill="none" stroke="#000000" d="M999,-122.0091C999,-138.0494 999,-159 999,-159 999,-159 833.8398,-159 833.8398,-159"/>
<polygon fill="#000000" stroke="#000000" points="833.8398,-155.5001 823.8398,-159 833.8397,-162.5001 833.8398,-155.5001"/>
</g>
<!-- TareaService -->
<g id="node11" class="node">
<title>TareaService</title>
<ellipse fill="#fdb462" stroke="#000000" cx="1146" cy="-104" rx="61.9326" ry="18"/>
<text text-anchor="middle" x="1146" y="-99.8" font-family="Times,serif" font-size="14.00" fill="#000000">TareaService</text>
</g>
<!-- TareaService&#45;&gt;AppModule -->
<g id="edge9" class="edge">
<title>TareaService&#45;&gt;AppModule</title>
<path fill="none" stroke="#000000" d="M1125.3446,-121.2705C1125.3446,-139.6158 1125.3446,-166 1125.3446,-166 1125.3446,-166 833.7575,-166 833.7575,-166"/>
<polygon fill="#000000" stroke="#000000" points="833.7576,-162.5001 823.7575,-166 833.7575,-169.5001 833.7576,-162.5001"/>
</g>
<!-- TareaModule -->
<g id="node25" class="node">
<title>TareaModule</title>
<polygon fill="#8dd3c7" stroke="#000000" points="1520.9077,-187 1517.9077,-191 1496.9077,-191 1493.9077,-187 1429.0923,-187 1429.0923,-151 1520.9077,-151 1520.9077,-187"/>
<text text-anchor="middle" x="1475" y="-164.8" font-family="Times,serif" font-size="14.00" fill="#000000">TareaModule</text>
</g>
<!-- TareaService&#45;&gt;TareaModule -->
<g id="edge22" class="edge">
<title>TareaService&#45;&gt;TareaModule</title>
<path fill="none" stroke="#000000" d="M1166.6554,-121.2456C1166.6554,-143.6688 1166.6554,-180 1166.6554,-180 1166.6554,-180 1419.1707,-180 1419.1707,-180"/>
<polygon fill="#000000" stroke="#000000" points="1419.1707,-183.5001 1429.1707,-180 1419.1706,-176.5001 1419.1707,-183.5001"/>
</g>
<!-- PersonaComponent -->
<g id="node12" class="node">
<title>PersonaComponent</title>
<polygon fill="#ffffb3" stroke="#000000" points="2838.6499,-122 2713.3501,-122 2713.3501,-86 2838.6499,-86 2838.6499,-122"/>
<text text-anchor="middle" x="2776" y="-99.8" font-family="Times,serif" font-size="14.00" fill="#000000">PersonaComponent</text>
</g>
<!-- PersonaModule -->
<g id="node16" class="node">
<title>PersonaModule</title>
<polygon fill="#8dd3c7" stroke="#000000" points="2420.8669,-187 2417.8669,-191 2396.8669,-191 2393.8669,-187 2317.1331,-187 2317.1331,-151 2420.8669,-151 2420.8669,-187"/>
<text text-anchor="middle" x="2369" y="-164.8" font-family="Times,serif" font-size="14.00" fill="#000000">PersonaModule</text>
</g>
<!-- PersonaComponent&#45;&gt;PersonaModule -->
<g id="edge10" class="edge">
<title>PersonaComponent&#45;&gt;PersonaModule</title>
<path fill="none" stroke="#000000" d="M2776,-122.2843C2776,-143.3211 2776,-175 2776,-175 2776,-175 2430.9602,-175 2430.9602,-175"/>
<polygon fill="#000000" stroke="#000000" points="2430.9603,-171.5001 2420.9602,-175 2430.9602,-178.5001 2430.9603,-171.5001"/>
</g>
<!-- PersonaItemComponent -->
<g id="node13" class="node">
<title>PersonaItemComponent</title>
<polygon fill="#ffffb3" stroke="#000000" points="2695.8061,-122 2544.1939,-122 2544.1939,-86 2695.8061,-86 2695.8061,-122"/>
<text text-anchor="middle" x="2620" y="-99.8" font-family="Times,serif" font-size="14.00" fill="#000000">PersonaItemComponent</text>
</g>
<!-- PersonaItemComponent&#45;&gt;PersonaModule -->
<g id="edge11" class="edge">
<title>PersonaItemComponent&#45;&gt;PersonaModule</title>
<path fill="none" stroke="#000000" d="M2620,-122.0225C2620,-139.3734 2620,-163 2620,-163 2620,-163 2431.0074,-163 2431.0074,-163"/>
<polygon fill="#000000" stroke="#000000" points="2431.0074,-159.5001 2421.0074,-163 2431.0073,-166.5001 2431.0074,-159.5001"/>
</g>
<!-- PersonaListComponent -->
<g id="node14" class="node">
<title>PersonaListComponent</title>
<polygon fill="#ffffb3" stroke="#000000" points="2526.9284,-122 2379.0716,-122 2379.0716,-86 2526.9284,-86 2526.9284,-122"/>
<text text-anchor="middle" x="2453" y="-99.8" font-family="Times,serif" font-size="14.00" fill="#000000">PersonaListComponent</text>
</g>
<!-- PersonaListComponent&#45;&gt;PersonaModule -->
<g id="edge12" class="edge">
<title>PersonaListComponent&#45;&gt;PersonaModule</title>
<path fill="none" stroke="#000000" d="M2400.1097,-122.1061C2400.1097,-122.1061 2400.1097,-140.991 2400.1097,-140.991"/>
<polygon fill="#000000" stroke="#000000" points="2396.6098,-140.9909 2400.1097,-150.991 2403.6098,-140.991 2396.6098,-140.9909"/>
</g>
<!-- PersonaPrintComponent -->
<g id="node15" class="node">
<title>PersonaPrintComponent</title>
<polygon fill="#ffffb3" stroke="#000000" points="2361.3739,-122 2208.6261,-122 2208.6261,-86 2361.3739,-86 2361.3739,-122"/>
<text text-anchor="middle" x="2285" y="-99.8" font-family="Times,serif" font-size="14.00" fill="#000000">PersonaPrintComponent</text>
</g>
<!-- PersonaPrintComponent&#45;&gt;PersonaModule -->
<g id="edge13" class="edge">
<title>PersonaPrintComponent&#45;&gt;PersonaModule</title>
<path fill="none" stroke="#000000" d="M2339.2518,-122.1061C2339.2518,-122.1061 2339.2518,-140.991 2339.2518,-140.991"/>
<polygon fill="#000000" stroke="#000000" points="2335.7518,-140.9909 2339.2518,-150.991 2342.7518,-140.991 2335.7518,-140.9909"/>
</g>
<!-- PersonaRoutingModule -->
<g id="node17" class="node">
<title>PersonaRoutingModule</title>
<polygon fill="#8dd3c7" stroke="#000000" points="2185.4846,-122 2182.4846,-126 2161.4846,-126 2158.4846,-122 2036.5154,-122 2036.5154,-86 2185.4846,-86 2185.4846,-122"/>
<text text-anchor="middle" x="2111" y="-99.8" font-family="Times,serif" font-size="14.00" fill="#000000">PersonaRoutingModule</text>
</g>
<!-- PersonaRoutingModule&#45;&gt;PersonaModule -->
<g id="edge14" class="edge">
<title>PersonaRoutingModule&#45;&gt;PersonaModule</title>
<path fill="none" stroke="#000000" d="M2111,-122.0091C2111,-138.0494 2111,-159 2111,-159 2111,-159 2307.1002,-159 2307.1002,-159"/>
<polygon fill="#000000" stroke="#000000" points="2307.1002,-162.5001 2317.1002,-159 2307.1002,-155.5001 2307.1002,-162.5001"/>
</g>
<!-- PersonaService -->
<g id="node18" class="node">
<title>PersonaService</title>
<ellipse fill="#fdb462" stroke="#000000" cx="1942" cy="-104" rx="70.622" ry="18"/>
<text text-anchor="middle" x="1942" y="-99.8" font-family="Times,serif" font-size="14.00" fill="#000000">PersonaService</text>
</g>
<!-- PersonaService&#45;&gt;PersonaModule -->
<g id="edge15" class="edge">
<title>PersonaService&#45;&gt;PersonaModule</title>
<path fill="none" stroke="#000000" d="M1942,-122.2667C1942,-140.5552 1942,-166 1942,-166 1942,-166 2307.0683,-166 2307.0683,-166"/>
<polygon fill="#000000" stroke="#000000" points="2307.0683,-169.5001 2317.0683,-166 2307.0683,-162.5001 2307.0683,-169.5001"/>
</g>
<!-- EstadoTareaPipe -->
<g id="node19" class="node">
<title>EstadoTareaPipe</title>
<polygon fill="#ffffb3" stroke="#000000" points="2991.3473,-122 2880.6527,-122 2880.6527,-86 2991.3473,-86 2991.3473,-122"/>
<text text-anchor="middle" x="2936" y="-99.8" font-family="Times,serif" font-size="14.00" fill="#000000">EstadoTareaPipe</text>
</g>
<!-- SharedPipesModule -->
<g id="node20" class="node">
<title>SharedPipesModule</title>
<polygon fill="#8dd3c7" stroke="#000000" points="3000.2548,-187 2997.2548,-191 2976.2548,-191 2973.2548,-187 2871.7452,-187 2871.7452,-151 3000.2548,-151 3000.2548,-187"/>
<text text-anchor="middle" x="2936" y="-164.8" font-family="Times,serif" font-size="14.00" fill="#000000">SharedPipesModule</text>
</g>
<!-- EstadoTareaPipe&#45;&gt;SharedPipesModule -->
<g id="edge16" class="edge">
<title>EstadoTareaPipe&#45;&gt;SharedPipesModule</title>
<path fill="none" stroke="#000000" d="M2936,-122.1061C2936,-122.1061 2936,-140.991 2936,-140.991"/>
<polygon fill="#000000" stroke="#000000" points="2932.5001,-140.9909 2936,-150.991 2939.5001,-140.991 2932.5001,-140.9909"/>
</g>
<!-- EstadoTareaPipe  -->
<g id="node21" class="node">
<title>EstadoTareaPipe </title>
<polygon fill="#fb8072" stroke="#000000" points="2993.3477,-252 2878.6523,-252 2878.6523,-216 2993.3477,-216 2993.3477,-252"/>
<text text-anchor="middle" x="2936" y="-229.8" font-family="Times,serif" font-size="14.00" fill="#000000">EstadoTareaPipe </text>
</g>
<!-- SharedPipesModule&#45;&gt;EstadoTareaPipe  -->
<g id="edge17" class="edge">
<title>SharedPipesModule&#45;&gt;EstadoTareaPipe </title>
<path fill="none" stroke="#000000" stroke-dasharray="5,2" d="M2936,-187.1061C2936,-187.1061 2936,-205.991 2936,-205.991"/>
<polygon fill="#000000" stroke="#000000" points="2932.5001,-205.9909 2936,-215.991 2939.5001,-205.991 2932.5001,-205.9909"/>
</g>
<!-- TareaComponent -->
<g id="node22" class="node">
<title>TareaComponent</title>
<polygon fill="#ffffb3" stroke="#000000" points="1830.6896,-122 1717.3104,-122 1717.3104,-86 1830.6896,-86 1830.6896,-122"/>
<text text-anchor="middle" x="1774" y="-99.8" font-family="Times,serif" font-size="14.00" fill="#000000">TareaComponent</text>
</g>
<!-- TareaComponent&#45;&gt;TareaModule -->
<g id="edge18" class="edge">
<title>TareaComponent&#45;&gt;TareaModule</title>
<path fill="none" stroke="#000000" d="M1774,-122.0109C1774,-144.4852 1774,-180 1774,-180 1774,-180 1530.7371,-180 1530.7371,-180"/>
<polygon fill="#000000" stroke="#000000" points="1530.7372,-176.5001 1520.7371,-180 1530.7371,-183.5001 1530.7372,-176.5001"/>
</g>
<!-- TareaItemComponent -->
<g id="node23" class="node">
<title>TareaItemComponent</title>
<polygon fill="#ffffb3" stroke="#000000" points="1699.3459,-122 1560.6541,-122 1560.6541,-86 1699.3459,-86 1699.3459,-122"/>
<text text-anchor="middle" x="1630" y="-99.8" font-family="Times,serif" font-size="14.00" fill="#000000">TareaItemComponent</text>
</g>
<!-- TareaItemComponent&#45;&gt;TareaModule -->
<g id="edge19" class="edge">
<title>TareaItemComponent&#45;&gt;TareaModule</title>
<path fill="none" stroke="#000000" d="M1630,-122.1289C1630,-142.5724 1630,-173 1630,-173 1630,-173 1531.0854,-173 1531.0854,-173"/>
<polygon fill="#000000" stroke="#000000" points="1531.0855,-169.5001 1521.0854,-173 1531.0854,-176.5001 1531.0855,-169.5001"/>
</g>
<!-- TareaListComponent -->
<g id="node24" class="node">
<title>TareaListComponent</title>
<polygon fill="#ffffb3" stroke="#000000" points="1542.4678,-122 1407.5322,-122 1407.5322,-86 1542.4678,-86 1542.4678,-122"/>
<text text-anchor="middle" x="1475" y="-99.8" font-family="Times,serif" font-size="14.00" fill="#000000">TareaListComponent</text>
</g>
<!-- TareaListComponent&#45;&gt;TareaModule -->
<g id="edge20" class="edge">
<title>TareaListComponent&#45;&gt;TareaModule</title>
<path fill="none" stroke="#000000" d="M1475,-122.1061C1475,-122.1061 1475,-140.991 1475,-140.991"/>
<polygon fill="#000000" stroke="#000000" points="1471.5001,-140.9909 1475,-150.991 1478.5001,-140.991 1471.5001,-140.9909"/>
</g>
<!-- TareaRoutingModule -->
<g id="node26" class="node">
<title>TareaRoutingModule</title>
<polygon fill="#8dd3c7" stroke="#000000" points="1384.0254,-122 1381.0254,-126 1360.0254,-126 1357.0254,-122 1247.9746,-122 1247.9746,-86 1384.0254,-86 1384.0254,-122"/>
<text text-anchor="middle" x="1316" y="-99.8" font-family="Times,serif" font-size="14.00" fill="#000000">TareaRoutingModule</text>
</g>
<!-- TareaRoutingModule&#45;&gt;TareaModule -->
<g id="edge21" class="edge">
<title>TareaRoutingModule&#45;&gt;TareaModule</title>
<path fill="none" stroke="#000000" d="M1316,-122.1289C1316,-142.5724 1316,-173 1316,-173 1316,-173 1419.0106,-173 1419.0106,-173"/>
<polygon fill="#000000" stroke="#000000" points="1419.0106,-176.5001 1429.0106,-173 1419.0106,-169.5001 1419.0106,-176.5001"/>
</g>
</g>
</svg>
